<svg xmlns="http://www.w3.org/2000/svg" xmlns:xlink="http://www.w3.org/1999/xlink" width="548" zoomAndPan="magnify" viewBox="0 0 410.88 162.749997" height="217" preserveAspectRatio="xMidYMid meet" version="1.0"><defs><clipPath id="9137d41cf0"><path d="M 0.855469 107 L 30 107 L 30 136 L 0.855469 136 Z M 0.855469 107 " clip-rule="nonzero"/></clipPath><clipPath id="f4ad773cb1"><path d="M 14 0.0078125 L 17 0.0078125 L 17 111 L 14 111 Z M 14 0.0078125 " clip-rule="nonzero"/></clipPath><clipPath id="7df37395b5"><path d="M 49 0.0078125 L 51 0.0078125 L 51 71 L 49 71 Z M 49 0.0078125 " clip-rule="nonzero"/></clipPath><clipPath id="1a8b66498d"><path d="M 91 0.0078125 L 93 0.0078125 L 93 103 L 91 103 Z M 91 0.0078125 " clip-rule="nonzero"/></clipPath><clipPath id="6a93c93750"><path d="M 114 134 L 144 134 L 144 162.5 L 114 162.5 Z M 114 134 " clip-rule="nonzero"/></clipPath><clipPath id="0068267cb2"><path d="M 128 0.0078125 L 130 0.0078125 L 130 138 L 128 138 Z M 128 0.0078125 " clip-rule="nonzero"/></clipPath><clipPath id="2fe4f45d24"><path d="M 197 0.0078125 L 199 0.0078125 L 199 124 L 197 124 Z M 197 0.0078125 " clip-rule="nonzero"/></clipPath><clipPath id="01f7b02a18"><path d="M 154 0.0078125 L 156 0.0078125 L 156 72 L 154 72 Z M 154 0.0078125 " clip-rule="nonzero"/></clipPath><clipPath id="fee5917653"><path d="M 244 0.0078125 L 246 0.0078125 L 246 135 L 244 135 Z M 244 0.0078125 " clip-rule="nonzero"/></clipPath><clipPath id="9915fde764"><path d="M 275 0.0078125 L 277 0.0078125 L 277 61 L 275 61 Z M 275 0.0078125 " clip-rule="nonzero"/></clipPath><clipPath id="1b8302af8c"><path d="M 332 0.0078125 L 334 0.0078125 L 334 83 L 332 83 Z M 332 0.0078125 " clip-rule="nonzero"/></clipPath><clipPath id="3e90733b02"><path d="M 368 0.0078125 L 370 0.0078125 L 370 137 L 368 137 Z M 368 0.0078125 " clip-rule="nonzero"/></clipPath><clipPath id="42b3b49f76"><path d="M 380 62 L 409.726562 62 L 409.726562 91 L 380 91 Z M 380 62 " clip-rule="nonzero"/></clipPath><clipPath id="77a0b24227"><path d="M 394 0.0078125 L 396 0.0078125 L 396 66 L 394 66 Z M 394 0.0078125 " clip-rule="nonzero"/></clipPath><clipPath id="87351e1041"><path d="M 109 0.0078125 L 111 0.0078125 L 111 67 L 109 67 Z M 109 0.0078125 " clip-rule="nonzero"/></clipPath><clipPath id="0ceac0b33e"><path d="M 220 0.0078125 L 221 0.0078125 L 221 82 L 220 82 Z M 220 0.0078125 " clip-rule="nonzero"/></clipPath><clipPath id="e9abfd0696"><path d="M 306 0.0078125 L 308 0.0078125 L 308 43 L 306 43 Z M 306 0.0078125 " clip-rule="nonzero"/></clipPath><clipPath id="25c06735d1"><path d="M 351 0.0078125 L 352 0.0078125 L 352 60 L 351 60 Z M 351 0.0078125 " clip-rule="nonzero"/></clipPath></defs><g clip-path="url(#9137d41cf0)"><path fill="#ffce00" d="M 15.929688 107.804688 L 20.039062 116.160156 C 20.109375 116.300781 20.242188 116.398438 20.398438 116.421875 L 29.589844 117.761719 C 29.980469 117.820312 30.140625 118.304688 29.855469 118.582031 L 23.203125 125.082031 C 23.089844 125.195312 23.039062 125.351562 23.066406 125.507812 L 24.636719 134.6875 C 24.703125 135.082031 24.292969 135.382812 23.941406 135.195312 L 15.71875 130.863281 C 15.582031 130.789062 15.414062 130.789062 15.273438 130.863281 L 7.054688 135.195312 C 6.703125 135.382812 6.292969 135.082031 6.359375 134.6875 L 7.929688 125.507812 C 7.957031 125.351562 7.90625 125.191406 7.792969 125.082031 L 1.140625 118.582031 C 0.855469 118.304688 1.011719 117.820312 1.40625 117.761719 L 10.597656 116.421875 C 10.753906 116.398438 10.886719 116.300781 10.957031 116.160156 L 15.066406 107.804688 C 15.246094 107.449219 15.753906 107.449219 15.929688 107.804688 Z M 15.929688 107.804688 " fill-opacity="1" fill-rule="nonzero"/></g><g clip-path="url(#f4ad773cb1)"><path fill="#ffce00" d="M 14.988281 0.0898438 L 16.007812 0.0898438 L 16.007812 110.683594 L 14.988281 110.683594 Z M 14.988281 0.0898438 " fill-opacity="1" fill-rule="nonzero"/></g><path fill="#ffce00" d="M 50.042969 67.257812 L 54.152344 75.609375 C 54.222656 75.75 54.359375 75.847656 54.511719 75.871094 L 63.703125 77.210938 C 64.097656 77.269531 64.253906 77.753906 63.96875 78.03125 L 57.320312 84.53125 C 57.207031 84.644531 57.152344 84.800781 57.179688 84.957031 L 58.75 94.140625 C 58.816406 94.53125 58.40625 94.832031 58.054688 94.644531 L 49.835938 90.3125 C 49.695312 90.238281 49.527344 90.238281 49.390625 90.3125 L 41.167969 94.644531 C 40.820312 94.832031 40.40625 94.53125 40.472656 94.140625 L 42.042969 84.957031 C 42.070312 84.800781 42.019531 84.644531 41.90625 84.53125 L 35.257812 78.03125 C 34.972656 77.753906 35.128906 77.269531 35.523438 77.210938 L 44.710938 75.871094 C 44.867188 75.847656 45.003906 75.75 45.074219 75.609375 L 49.183594 67.257812 C 49.359375 66.898438 49.867188 66.898438 50.042969 67.257812 Z M 50.042969 67.257812 " fill-opacity="1" fill-rule="nonzero"/><g clip-path="url(#7df37395b5)"><path fill="#ffce00" d="M 49.101562 0.0898438 L 50.125 0.0898438 L 50.125 70.132812 L 49.101562 70.132812 Z M 49.101562 0.0898438 " fill-opacity="1" fill-rule="nonzero"/></g><path fill="#ffce00" d="M 92.234375 102.144531 L 95.644531 109.070312 C 95.703125 109.1875 95.8125 109.269531 95.941406 109.289062 L 103.5625 110.398438 C 103.890625 110.445312 104.019531 110.851562 103.785156 111.082031 L 98.269531 116.472656 C 98.175781 116.5625 98.132812 116.695312 98.15625 116.824219 L 99.457031 124.4375 C 99.511719 124.765625 99.171875 125.011719 98.878906 124.859375 L 92.0625 121.265625 C 91.949219 121.203125 91.808594 121.203125 91.695312 121.265625 L 84.878906 124.859375 C 84.585938 125.011719 84.246094 124.765625 84.300781 124.4375 L 85.601562 116.824219 C 85.625 116.695312 85.582031 116.566406 85.488281 116.472656 L 79.972656 111.082031 C 79.738281 110.851562 79.867188 110.445312 80.195312 110.398438 L 87.816406 109.289062 C 87.945312 109.269531 88.058594 109.1875 88.113281 109.070312 L 91.523438 102.144531 C 91.667969 101.847656 92.089844 101.847656 92.234375 102.144531 Z M 92.234375 102.144531 " fill-opacity="1" fill-rule="nonzero"/><g clip-path="url(#1a8b66498d)"><path fill="#ffce00" d="M 91.367188 0.0898438 L 92.386719 0.0898438 L 92.386719 102.699219 L 91.367188 102.699219 Z M 91.367188 0.0898438 " fill-opacity="1" fill-rule="nonzero"/></g><g clip-path="url(#6a93c93750)"><path fill="#ffce00" d="M 129.460938 134.84375 L 133.570312 143.199219 C 133.640625 143.339844 133.773438 143.4375 133.929688 143.460938 L 143.121094 144.800781 C 143.511719 144.859375 143.671875 145.34375 143.386719 145.621094 L 136.734375 152.121094 C 136.621094 152.230469 136.570312 152.390625 136.597656 152.546875 L 138.167969 161.726562 C 138.234375 162.121094 137.824219 162.421875 137.472656 162.234375 L 129.253906 157.898438 C 129.113281 157.828125 128.945312 157.828125 128.804688 157.898438 L 120.585938 162.234375 C 120.234375 162.421875 119.824219 162.121094 119.890625 161.726562 L 121.460938 152.546875 C 121.488281 152.390625 121.4375 152.230469 121.324219 152.121094 L 114.671875 145.621094 C 114.386719 145.34375 114.546875 144.859375 114.9375 144.800781 L 124.128906 143.460938 C 124.285156 143.4375 124.417969 143.339844 124.488281 143.199219 L 128.597656 134.84375 C 128.777344 134.488281 129.285156 134.488281 129.460938 134.84375 Z M 129.460938 134.84375 " fill-opacity="1" fill-rule="nonzero"/></g><g clip-path="url(#0068267cb2)"><path fill="#ffce00" d="M 128.519531 0.0898438 L 129.542969 0.0898438 L 129.542969 137.71875 L 128.519531 137.71875 Z M 128.519531 0.0898438 " fill-opacity="1" fill-rule="nonzero"/></g><path fill="#ffce00" d="M 198.792969 121.929688 L 201.976562 128.398438 C 202.03125 128.507812 202.132812 128.585938 202.257812 128.605469 L 209.371094 129.640625 C 209.675781 129.683594 209.796875 130.0625 209.578125 130.277344 L 204.429688 135.3125 C 204.339844 135.394531 204.300781 135.519531 204.320312 135.640625 L 205.539062 142.75 C 205.589844 143.054688 205.269531 143.285156 205 143.140625 L 198.632812 139.785156 C 198.527344 139.726562 198.398438 139.726562 198.289062 139.785156 L 191.921875 143.140625 C 191.652344 143.285156 191.332031 143.054688 191.386719 142.75 L 192.601562 135.640625 C 192.621094 135.519531 192.582031 135.398438 192.496094 135.3125 L 187.34375 130.277344 C 187.125 130.0625 187.246094 129.683594 187.550781 129.640625 L 194.667969 128.605469 C 194.789062 128.585938 194.890625 128.507812 194.945312 128.398438 L 198.128906 121.929688 C 198.261719 121.65625 198.65625 121.65625 198.792969 121.929688 Z M 198.792969 121.929688 " fill-opacity="1" fill-rule="nonzero"/><g clip-path="url(#2fe4f45d24)"><path fill="#ffce00" d="M 197.949219 0.0898438 L 198.972656 0.0898438 L 198.972656 123.585938 L 197.949219 123.585938 Z M 197.949219 0.0898438 " fill-opacity="1" fill-rule="nonzero"/></g><path fill="#ffce00" d="M 155.1875 68.488281 L 159.296875 76.84375 C 159.367188 76.984375 159.5 77.082031 159.65625 77.105469 L 168.847656 78.445312 C 169.238281 78.503906 169.398438 78.988281 169.113281 79.265625 L 162.460938 85.765625 C 162.347656 85.878906 162.296875 86.035156 162.324219 86.191406 L 163.894531 95.375 C 163.960938 95.765625 163.550781 96.066406 163.199219 95.878906 L 154.980469 91.546875 C 154.839844 91.472656 154.671875 91.472656 154.53125 91.546875 L 146.3125 95.878906 C 145.960938 96.066406 145.550781 95.765625 145.617188 95.375 L 147.1875 86.191406 C 147.214844 86.035156 147.164062 85.875 147.050781 85.765625 L 140.398438 79.265625 C 140.113281 78.988281 140.273438 78.503906 140.664062 78.445312 L 149.855469 77.105469 C 150.011719 77.082031 150.144531 76.984375 150.214844 76.84375 L 154.324219 68.488281 C 154.503906 68.132812 155.011719 68.132812 155.1875 68.488281 Z M 155.1875 68.488281 " fill-opacity="1" fill-rule="nonzero"/><g clip-path="url(#01f7b02a18)"><path fill="#ffce00" d="M 154.246094 0.0898438 L 155.269531 0.0898438 L 155.269531 71.363281 L 154.246094 71.363281 Z M 154.246094 0.0898438 " fill-opacity="1" fill-rule="nonzero"/></g><path fill="#ffce00" d="M 245.230469 131.160156 L 249.339844 139.511719 C 249.410156 139.652344 249.546875 139.75 249.699219 139.773438 L 258.890625 141.113281 C 259.285156 141.171875 259.441406 141.65625 259.15625 141.933594 L 252.507812 148.433594 C 252.394531 148.546875 252.339844 148.703125 252.367188 148.859375 L 253.9375 158.042969 C 254.003906 158.433594 253.59375 158.734375 253.242188 158.546875 L 245.023438 154.214844 C 244.882812 154.140625 244.714844 154.140625 244.578125 154.214844 L 236.355469 158.546875 C 236.003906 158.734375 235.59375 158.433594 235.660156 158.042969 L 237.230469 148.859375 C 237.257812 148.703125 237.207031 148.546875 237.09375 148.433594 L 230.441406 141.933594 C 230.160156 141.65625 230.316406 141.171875 230.707031 141.113281 L 239.898438 139.773438 C 240.054688 139.75 240.191406 139.652344 240.257812 139.511719 L 244.371094 131.160156 C 244.546875 130.800781 245.054688 130.800781 245.230469 131.160156 Z M 245.230469 131.160156 " fill-opacity="1" fill-rule="nonzero"/><g clip-path="url(#fee5917653)"><path fill="#ffce00" d="M 244.289062 0.0898438 L 245.3125 0.0898438 L 245.3125 134.03125 L 244.289062 134.03125 Z M 244.289062 0.0898438 " fill-opacity="1" fill-rule="nonzero"/></g><path fill="#ffce00" d="M 275.972656 58.09375 L 279.15625 64.5625 C 279.210938 64.671875 279.316406 64.75 279.4375 64.765625 L 286.554688 65.804688 C 286.855469 65.847656 286.980469 66.222656 286.757812 66.4375 L 281.609375 71.472656 C 281.519531 71.558594 281.480469 71.683594 281.5 71.804688 L 282.71875 78.914062 C 282.769531 79.214844 282.449219 79.449219 282.179688 79.304688 L 275.8125 75.949219 C 275.707031 75.890625 275.578125 75.890625 275.46875 75.949219 L 269.105469 79.304688 C 268.832031 79.449219 268.515625 79.214844 268.566406 78.914062 L 269.78125 71.804688 C 269.800781 71.683594 269.761719 71.558594 269.675781 71.472656 L 264.523438 66.4375 C 264.304688 66.222656 264.425781 65.847656 264.730469 65.804688 L 271.847656 64.765625 C 271.96875 64.75 272.074219 64.671875 272.125 64.5625 L 275.308594 58.09375 C 275.445312 57.816406 275.835938 57.816406 275.972656 58.09375 Z M 275.972656 58.09375 " fill-opacity="1" fill-rule="nonzero"/><g clip-path="url(#9915fde764)"><path fill="#ffce00" d="M 275.128906 0.0898438 L 276.152344 0.0898438 L 276.152344 60.914062 L 275.128906 60.914062 Z M 275.128906 0.0898438 " fill-opacity="1" fill-rule="nonzero"/></g><path fill="#ffce00" d="M 333.035156 79.550781 L 337.148438 87.902344 C 337.214844 88.042969 337.351562 88.144531 337.507812 88.164062 L 346.699219 89.503906 C 347.089844 89.5625 347.246094 90.046875 346.964844 90.324219 L 340.3125 96.824219 C 340.199219 96.9375 340.148438 97.09375 340.175781 97.25 L 341.746094 106.433594 C 341.8125 106.824219 341.402344 107.125 341.050781 106.9375 L 332.828125 102.605469 C 332.691406 102.53125 332.523438 102.53125 332.382812 102.605469 L 324.164062 106.9375 C 323.8125 107.125 323.402344 106.824219 323.46875 106.433594 L 325.039062 97.25 C 325.066406 97.09375 325.011719 96.9375 324.898438 96.824219 L 318.25 90.324219 C 317.964844 90.046875 318.121094 89.5625 318.515625 89.503906 L 327.707031 88.164062 C 327.863281 88.144531 327.996094 88.042969 328.066406 87.902344 L 332.175781 79.550781 C 332.351562 79.191406 332.859375 79.191406 333.035156 79.550781 Z M 333.035156 79.550781 " fill-opacity="1" fill-rule="nonzero"/><g clip-path="url(#1b8302af8c)"><path fill="#ffce00" d="M 332.097656 0.0898438 L 333.117188 0.0898438 L 333.117188 82.421875 L 332.097656 82.421875 Z M 332.097656 0.0898438 " fill-opacity="1" fill-rule="nonzero"/></g><path fill="#ffce00" d="M 369.789062 133.609375 L 373.898438 141.964844 C 373.96875 142.105469 374.105469 142.203125 374.261719 142.226562 L 383.449219 143.566406 C 383.84375 143.625 384 144.109375 383.714844 144.386719 L 377.066406 150.886719 C 376.953125 151 376.902344 151.15625 376.925781 151.3125 L 378.496094 160.492188 C 378.566406 160.886719 378.152344 161.1875 377.800781 161 L 369.582031 156.667969 C 369.441406 156.59375 369.277344 156.59375 369.136719 156.667969 L 360.914062 161 C 360.566406 161.1875 360.152344 160.886719 360.21875 160.492188 L 361.789062 151.3125 C 361.816406 151.15625 361.765625 150.996094 361.652344 150.886719 L 355.003906 144.386719 C 354.71875 144.109375 354.875 143.625 355.269531 143.566406 L 364.457031 142.226562 C 364.613281 142.203125 364.75 142.105469 364.820312 141.964844 L 368.929688 133.609375 C 369.105469 133.253906 369.613281 133.253906 369.789062 133.609375 Z M 369.789062 133.609375 " fill-opacity="1" fill-rule="nonzero"/><g clip-path="url(#3e90733b02)"><path fill="#ffce00" d="M 368.847656 0.0898438 L 369.871094 0.0898438 L 369.871094 136.488281 L 368.847656 136.488281 Z M 368.847656 0.0898438 " fill-opacity="1" fill-rule="nonzero"/></g><g clip-path="url(#42b3b49f76)"><path fill="#ffce00" d="M 395.515625 62.960938 L 399.625 71.3125 C 399.695312 71.457031 399.832031 71.554688 399.988281 71.578125 L 409.175781 72.914062 C 409.570312 72.972656 409.726562 73.457031 409.441406 73.734375 L 402.792969 80.238281 C 402.679688 80.347656 402.628906 80.507812 402.65625 80.664062 L 404.222656 89.84375 C 404.292969 90.234375 403.878906 90.535156 403.53125 90.351562 L 395.308594 86.015625 C 395.167969 85.941406 395.003906 85.941406 394.863281 86.015625 L 386.640625 90.351562 C 386.292969 90.535156 385.878906 90.238281 385.949219 89.84375 L 387.515625 80.664062 C 387.542969 80.507812 387.492188 80.347656 387.378906 80.238281 L 380.730469 73.734375 C 380.445312 73.457031 380.601562 72.972656 380.996094 72.914062 L 390.183594 71.578125 C 390.339844 71.554688 390.476562 71.457031 390.546875 71.3125 L 394.65625 62.960938 C 394.832031 62.601562 395.339844 62.601562 395.515625 62.960938 Z M 395.515625 62.960938 " fill-opacity="1" fill-rule="nonzero"/></g><g clip-path="url(#77a0b24227)"><path fill="#ffce00" d="M 394.574219 0.0898438 L 395.597656 0.0898438 L 395.597656 65.835938 L 394.574219 65.835938 Z M 394.574219 0.0898438 " fill-opacity="1" fill-rule="nonzero"/></g><path fill="#ffce00" d="M 110.464844 65.4375 L 112.492188 69.554688 C 112.527344 69.621094 112.59375 69.671875 112.667969 69.683594 L 117.199219 70.34375 C 117.390625 70.371094 117.46875 70.609375 117.328125 70.75 L 114.050781 73.953125 C 113.996094 74.007812 113.96875 74.085938 113.984375 74.160156 L 114.757812 78.6875 C 114.789062 78.878906 114.585938 79.027344 114.414062 78.9375 L 110.363281 76.800781 C 110.292969 76.765625 110.210938 76.765625 110.144531 76.800781 L 106.09375 78.9375 C 105.917969 79.027344 105.714844 78.878906 105.75 78.6875 L 106.523438 74.160156 C 106.535156 74.085938 106.511719 74.007812 106.453125 73.953125 L 103.179688 70.746094 C 103.039062 70.609375 103.117188 70.371094 103.308594 70.339844 L 107.839844 69.679688 C 107.914062 69.667969 107.980469 69.621094 108.015625 69.550781 L 110.042969 65.433594 C 110.128906 65.261719 110.378906 65.261719 110.464844 65.4375 Z M 110.464844 65.4375 " fill-opacity="1" fill-rule="nonzero"/><g clip-path="url(#87351e1041)"><path fill="#ffce00" d="M 109.988281 0.0898438 L 110.519531 0.0898438 L 110.519531 66.554688 L 109.988281 66.554688 Z M 109.988281 0.0898438 " fill-opacity="1" fill-rule="nonzero"/></g><path fill="#ffce00" d="M 220.734375 79.804688 L 222.875 84.152344 C 222.910156 84.226562 222.980469 84.277344 223.0625 84.289062 L 227.847656 84.988281 C 228.050781 85.015625 228.132812 85.269531 227.984375 85.414062 L 224.523438 88.800781 C 224.464844 88.855469 224.4375 88.9375 224.453125 89.019531 L 225.269531 93.800781 C 225.304688 94.003906 225.089844 94.160156 224.90625 94.0625 L 220.628906 91.808594 C 220.554688 91.769531 220.46875 91.769531 220.398438 91.808594 L 216.117188 94.0625 C 215.933594 94.160156 215.71875 94.003906 215.753906 93.800781 L 216.574219 89.019531 C 216.585938 88.9375 216.558594 88.855469 216.5 88.800781 L 213.039062 85.414062 C 212.890625 85.269531 212.972656 85.015625 213.175781 84.988281 L 217.960938 84.289062 C 218.042969 84.277344 218.113281 84.226562 218.148438 84.152344 L 220.289062 79.804688 C 220.378906 79.617188 220.644531 79.617188 220.734375 79.804688 Z M 220.734375 79.804688 " fill-opacity="1" fill-rule="nonzero"/><g clip-path="url(#0ceac0b33e)"><path fill="#ffce00" d="M 220.246094 0.0898438 L 220.777344 0.0898438 L 220.777344 81.300781 L 220.246094 81.300781 Z M 220.246094 0.0898438 " fill-opacity="1" fill-rule="nonzero"/></g><path fill="#ffce00" d="M 307.105469 41.230469 L 309.242188 45.578125 C 309.28125 45.652344 309.351562 45.703125 309.429688 45.714844 L 314.214844 46.414062 C 314.421875 46.441406 314.503906 46.695312 314.355469 46.839844 L 310.890625 50.226562 C 310.832031 50.28125 310.808594 50.367188 310.820312 50.445312 L 311.640625 55.226562 C 311.671875 55.429688 311.460938 55.585938 311.277344 55.492188 L 306.996094 53.234375 C 306.925781 53.195312 306.835938 53.195312 306.765625 53.234375 L 302.484375 55.492188 C 302.300781 55.585938 302.089844 55.429688 302.121094 55.226562 L 302.941406 50.445312 C 302.953125 50.367188 302.925781 50.28125 302.871094 50.226562 L 299.40625 46.839844 C 299.257812 46.695312 299.339844 46.441406 299.542969 46.414062 L 304.328125 45.714844 C 304.410156 45.703125 304.480469 45.652344 304.515625 45.578125 L 306.65625 41.230469 C 306.746094 41.042969 307.011719 41.042969 307.105469 41.230469 Z M 307.105469 41.230469 " fill-opacity="1" fill-rule="nonzero"/><g clip-path="url(#e9abfd0696)"><path fill="#ffce00" d="M 306.613281 0.0898438 L 307.144531 0.0898438 L 307.144531 42.726562 L 306.613281 42.726562 Z M 306.613281 0.0898438 " fill-opacity="1" fill-rule="nonzero"/></g><path fill="#ffce00" d="M 351.605469 57.683594 L 353.746094 62.035156 C 353.78125 62.109375 353.851562 62.160156 353.933594 62.171875 L 358.71875 62.867188 C 358.921875 62.898438 359.003906 63.148438 358.855469 63.296875 L 355.394531 66.679688 C 355.335938 66.738281 355.308594 66.820312 355.324219 66.902344 L 356.140625 71.683594 C 356.175781 71.886719 355.960938 72.042969 355.777344 71.945312 L 351.5 69.6875 C 351.425781 69.652344 351.339844 69.652344 351.265625 69.6875 L 346.988281 71.945312 C 346.804688 72.042969 346.589844 71.886719 346.625 71.683594 L 347.441406 66.902344 C 347.457031 66.820312 347.429688 66.738281 347.371094 66.679688 L 343.910156 63.296875 C 343.761719 63.152344 343.84375 62.898438 344.046875 62.867188 L 348.832031 62.171875 C 348.914062 62.160156 348.984375 62.109375 349.019531 62.035156 L 351.160156 57.683594 C 351.25 57.5 351.515625 57.5 351.605469 57.683594 Z M 351.605469 57.683594 " fill-opacity="1" fill-rule="nonzero"/><g clip-path="url(#25c06735d1)"><path fill="#ffce00" d="M 351.117188 0.0898438 L 351.648438 0.0898438 L 351.648438 59.179688 L 351.117188 59.179688 Z M 351.117188 0.0898438 " fill-opacity="1" fill-rule="nonzero"/></g></svg>