<svg xmlns="http://www.w3.org/2000/svg" xmlns:xlink="http://www.w3.org/1999/xlink" width="55" zoomAndPan="magnify" viewBox="0 0 41.25 47.250001" height="63" preserveAspectRatio="xMidYMid meet" version="1.0"><defs><clipPath id="dc8c6837c0"><path d="M 7 8.898438 L 29.316406 8.898438 L 29.316406 31 L 7 31 Z M 7 8.898438 " clip-rule="nonzero"/></clipPath><clipPath id="5f437d2661"><path d="M 1 31 L 7 31 L 7 36.886719 L 1 36.886719 Z M 1 31 " clip-rule="nonzero"/></clipPath><clipPath id="edc0b692dd"><path d="M 6 34 L 9 34 L 9 36.886719 L 6 36.886719 Z M 6 34 " clip-rule="nonzero"/></clipPath></defs><path fill="#731dd8" d="M 22.777344 16.441406 C 23.109375 16.109375 23.109375 15.535156 22.777344 15.203125 C 22.445312 14.871094 21.878906 14.867188 21.542969 15.203125 C 21.210938 15.535156 21.210938 16.113281 21.539062 16.441406 C 21.871094 16.773438 22.449219 16.769531 22.777344 16.441406 Z M 22.777344 16.441406 " fill-opacity="1" fill-rule="nonzero"/><g clip-path="url(#dc8c6837c0)"><path fill="#731dd8" d="M 28.996094 11.824219 C 29.144531 10.25 27.730469 8.855469 26.167969 8.996094 C 20.796875 9.5 15.867188 11.710938 11.90625 15.390625 C 10.238281 16.941406 8.796875 18.714844 7.609375 20.660156 C 6.992188 21.683594 7.15625 22.996094 8.007812 23.847656 C 8.007812 23.847656 14.132812 29.960938 14.136719 29.964844 C 14.9375 30.765625 16.335938 30.972656 17.316406 30.371094 C 19.007812 29.328125 20.566406 28.097656 21.953125 26.703125 C 25.902344 22.75 28.472656 17.394531 28.996094 11.824219 Z M 20.3125 13.976562 C 21.332031 12.960938 22.988281 12.960938 24.003906 13.976562 C 25.007812 14.976562 25.003906 16.671875 24.003906 17.667969 C 23 18.671875 21.316406 18.671875 20.3125 17.667969 C 19.3125 16.664062 19.316406 14.976562 20.3125 13.976562 Z M 20.3125 13.976562 " fill-opacity="1" fill-rule="nonzero"/></g><path fill="#731dd8" d="M 4.832031 26.445312 C 4.300781 26.710938 4.203125 27.410156 4.605469 27.832031 C 4.605469 27.832031 10.140625 33.371094 10.152344 33.378906 C 10.5625 33.789062 11.28125 33.667969 11.539062 33.152344 L 12.648438 30.929688 L 7.042969 25.332031 C 7.042969 25.332031 4.835938 26.441406 4.832031 26.445312 Z M 4.832031 26.445312 " fill-opacity="1" fill-rule="nonzero"/><path fill="#731dd8" d="M 23.1875 27.953125 C 21.6875 29.453125 20.003906 30.769531 18.195312 31.867188 C 18.136719 31.902344 18.066406 31.945312 18.003906 31.972656 C 18.003906 31.972656 18.871094 34.574219 18.871094 34.578125 C 19.070312 35.171875 19.871094 35.359375 20.3125 34.914062 C 20.3125 34.914062 22.777344 32.449219 22.777344 32.449219 C 23.328125 31.902344 23.636719 31.011719 23.515625 30.238281 Z M 23.1875 27.953125 " fill-opacity="1" fill-rule="nonzero"/><path fill="#731dd8" d="M 3.398438 19.113281 L 6.003906 19.980469 C 6.039062 19.910156 6.082031 19.832031 6.125 19.761719 C 7.234375 17.960938 8.515625 16.28125 10.019531 14.789062 L 7.746094 14.46875 C 6.921875 14.355469 6.113281 14.625 5.523438 15.207031 C 5.523438 15.207031 3.0625 17.667969 3.058594 17.671875 C 2.613281 18.117188 2.808594 18.910156 3.398438 19.113281 Z M 3.398438 19.113281 " fill-opacity="1" fill-rule="nonzero"/><g clip-path="url(#5f437d2661)"><path fill="#731dd8" d="M 6.179688 31.808594 C 5.839844 31.46875 5.292969 31.46875 4.953125 31.804688 L 1.492188 35.253906 C 1.152344 35.59375 1.152344 36.144531 1.492188 36.480469 C 1.828125 36.820312 2.382812 36.816406 2.71875 36.484375 L 6.175781 33.035156 C 6.515625 32.695312 6.515625 32.148438 6.179688 31.808594 Z M 6.179688 31.808594 " fill-opacity="1" fill-rule="nonzero"/></g><g clip-path="url(#edc0b692dd)"><path fill="#731dd8" d="M 7.414062 34.261719 L 6.40625 35.273438 C 6.066406 35.613281 6.066406 36.160156 6.40625 36.5 C 6.726562 36.820312 7.292969 36.839844 7.632812 36.5 L 8.644531 35.492188 C 8.980469 35.152344 8.980469 34.601562 8.644531 34.261719 C 8.304688 33.925781 7.753906 33.925781 7.414062 34.261719 Z M 7.414062 34.261719 " fill-opacity="1" fill-rule="nonzero"/></g><path fill="#731dd8" d="M 2.105469 31.816406 C 2.3125 31.828125 2.527344 31.753906 2.71875 31.5625 L 3.710938 30.570312 C 4.050781 30.230469 4.050781 29.679688 3.710938 29.339844 C 3.375 29.003906 2.824219 29.003906 2.484375 29.339844 C 2.484375 29.339844 1.496094 30.332031 1.492188 30.335938 C 0.898438 30.925781 1.457031 31.785156 2.105469 31.816406 Z M 2.105469 31.816406 " fill-opacity="1" fill-rule="nonzero"/></svg>