<svg xmlns="http://www.w3.org/2000/svg" xmlns:xlink="http://www.w3.org/1999/xlink" width="162" zoomAndPan="magnify" viewBox="0 0 121.5 39.749999" height="53" preserveAspectRatio="xMidYMid meet" version="1.0"><defs><clipPath id="66c934b861"><path d="M 95 2.125 L 111 2.125 L 111 31.9375 L 95 31.9375 Z M 95 2.125 " clip-rule="nonzero"/></clipPath><clipPath id="20469fcdfc"><path d="M 57 2.125 L 73 2.125 L 73 31.9375 L 57 31.9375 Z M 57 2.125 " clip-rule="nonzero"/></clipPath><clipPath id="9fc2d033ce"><path d="M 19 2.125 L 35 2.125 L 35 31.9375 L 19 31.9375 Z M 19 2.125 " clip-rule="nonzero"/></clipPath><clipPath id="56a52b2758"><path d="M 105 2.125 L 120.171875 2.125 L 120.171875 31.9375 L 105 31.9375 Z M 105 2.125 " clip-rule="nonzero"/></clipPath><clipPath id="e3e6770756"><path d="M 67 2.125 L 83 2.125 L 83 31.9375 L 67 31.9375 Z M 67 2.125 " clip-rule="nonzero"/></clipPath><clipPath id="fe752f247c"><path d="M 29 2.125 L 45 2.125 L 45 31.9375 L 29 31.9375 Z M 29 2.125 " clip-rule="nonzero"/></clipPath><clipPath id="83bb6e066b"><path d="M 76 2.125 L 92 2.125 L 92 31.9375 L 76 31.9375 Z M 76 2.125 " clip-rule="nonzero"/></clipPath><clipPath id="a9bfa75a51"><path d="M 38 2.125 L 54 2.125 L 54 31.9375 L 38 31.9375 Z M 38 2.125 " clip-rule="nonzero"/></clipPath><clipPath id="cfc24047a4"><path d="M 0.492188 2.125 L 16 2.125 L 16 31.9375 L 0.492188 31.9375 Z M 0.492188 2.125 " clip-rule="nonzero"/></clipPath><clipPath id="25a93610e8"><path d="M 86 2.125 L 102 2.125 L 102 31.9375 L 86 31.9375 Z M 86 2.125 " clip-rule="nonzero"/></clipPath><clipPath id="c1f010d827"><path d="M 48 2.125 L 64 2.125 L 64 31.9375 L 48 31.9375 Z M 48 2.125 " clip-rule="nonzero"/></clipPath><clipPath id="fa12d90cf2"><path d="M 10 2.125 L 25 2.125 L 25 31.9375 L 10 31.9375 Z M 10 2.125 " clip-rule="nonzero"/></clipPath></defs><g clip-path="url(#66c934b861)"><path fill="#000000" d="M 105.40625 2.144531 L 110.652344 2.144531 L 100.902344 17.167969 L 110.636719 32.175781 L 105.40625 32.175781 L 95.65625 17.167969 Z M 105.40625 2.144531 " fill-opacity="1" fill-rule="nonzero"/></g><g clip-path="url(#20469fcdfc)"><path fill="#000000" d="M 67.34375 2.144531 L 72.582031 2.144531 L 62.832031 17.167969 L 72.570312 32.175781 L 67.34375 32.175781 L 57.59375 17.167969 Z M 67.34375 2.144531 " fill-opacity="1" fill-rule="nonzero"/></g><g clip-path="url(#9fc2d033ce)"><path fill="#000000" d="M 29.277344 2.144531 L 34.515625 2.144531 L 24.765625 17.167969 L 34.503906 32.175781 L 29.277344 32.175781 L 19.523438 17.167969 Z M 29.277344 2.144531 " fill-opacity="1" fill-rule="nonzero"/></g><g clip-path="url(#56a52b2758)"><path fill="#000000" d="M 120.171875 2.144531 L 110.421875 17.167969 L 120.171875 32.175781 L 114.933594 32.175781 L 105.183594 17.167969 L 114.933594 2.144531 Z M 120.171875 2.144531 " fill-opacity="1" fill-rule="nonzero"/></g><g clip-path="url(#e3e6770756)"><path fill="#000000" d="M 82.101562 2.144531 L 72.351562 17.167969 L 82.101562 32.175781 L 76.859375 32.175781 L 67.109375 17.167969 L 76.859375 2.144531 Z M 82.101562 2.144531 " fill-opacity="1" fill-rule="nonzero"/></g><g clip-path="url(#fe752f247c)"><path fill="#000000" d="M 44.03125 2.144531 L 34.28125 17.167969 L 44.03125 32.175781 L 38.792969 32.175781 L 29.042969 17.167969 L 38.792969 2.144531 Z M 44.03125 2.144531 " fill-opacity="1" fill-rule="nonzero"/></g><g clip-path="url(#83bb6e066b)"><path fill="#000000" d="M 86.375 2.144531 L 91.617188 2.144531 L 81.867188 17.167969 L 91.601562 32.175781 L 86.375 32.175781 L 76.625 17.167969 Z M 86.375 2.144531 " fill-opacity="1" fill-rule="nonzero"/></g><g clip-path="url(#a9bfa75a51)"><path fill="#000000" d="M 48.308594 2.144531 L 53.546875 2.144531 L 43.796875 17.167969 L 53.535156 32.175781 L 48.308594 32.175781 L 38.558594 17.167969 Z M 48.308594 2.144531 " fill-opacity="1" fill-rule="nonzero"/></g><g clip-path="url(#cfc24047a4)"><path fill="#000000" d="M 10.242188 2.144531 L 15.484375 2.144531 L 5.734375 17.167969 L 15.46875 32.175781 L 10.242188 32.175781 L 0.492188 17.167969 Z M 10.242188 2.144531 " fill-opacity="1" fill-rule="nonzero"/></g><g clip-path="url(#25a93610e8)"><path fill="#000000" d="M 101.132812 2.144531 L 91.382812 17.167969 L 101.132812 32.175781 L 95.890625 32.175781 L 86.140625 17.167969 L 95.890625 2.144531 Z M 101.132812 2.144531 " fill-opacity="1" fill-rule="nonzero"/></g><g clip-path="url(#c1f010d827)"><path fill="#000000" d="M 63.066406 2.144531 L 53.316406 17.167969 L 63.066406 32.175781 L 57.828125 32.175781 L 48.078125 17.167969 L 57.828125 2.144531 Z M 63.066406 2.144531 " fill-opacity="1" fill-rule="nonzero"/></g><g clip-path="url(#fa12d90cf2)"><path fill="#000000" d="M 25 2.144531 L 15.25 17.167969 L 25 32.175781 L 19.761719 32.175781 L 10.011719 17.167969 L 19.757812 2.144531 Z M 25 2.144531 " fill-opacity="1" fill-rule="nonzero"/></g></svg>