<svg xmlns="http://www.w3.org/2000/svg" xmlns:xlink="http://www.w3.org/1999/xlink" width="273" zoomAndPan="magnify" viewBox="0 0 204.75 204.749995" height="273" preserveAspectRatio="xMidYMid meet" version="1.0"><defs><clipPath id="ba078ce728"><path d="M 0.300781 0.703125 L 204 0.703125 L 204 204.457031 L 0.300781 204.457031 Z M 0.300781 0.703125 " clip-rule="nonzero"/></clipPath></defs><g clip-path="url(#ba078ce728)"><path fill="#edf2f4" d="M 180.308594 163.433594 L 160.003906 143.128906 L 152.050781 143.128906 L 172.375 163.433594 Z M 162.796875 180.941406 L 162.796875 173.007812 L 142.492188 152.683594 L 142.492188 160.636719 Z M 202.921875 172.808594 C 201.859375 175.335938 199.386719 176.976562 196.644531 176.976562 L 176.339844 176.976562 L 176.339844 197.28125 C 176.339844 200.023438 174.699219 202.492188 172.15625 203.554688 C 171.328125 203.898438 170.445312 204.0625 169.558594 204.0625 C 167.8125 204.0625 166.078125 203.359375 164.78125 202.078125 L 130.933594 168.230469 C 129.652344 166.949219 128.949219 165.234375 128.949219 163.433594 L 128.949219 139.160156 L 95.082031 105.292969 L 95.082031 116.042969 C 95.082031 119.773438 92.054688 122.820312 88.320312 122.820312 C 84.589844 122.820312 81.539062 119.773438 81.539062 116.042969 L 81.539062 88.957031 C 81.539062 88.070312 81.738281 87.1875 82.0625 86.375 C 82.75 84.71875 84.082031 83.402344 85.742188 82.714844 C 86.554688 82.375 87.4375 82.175781 88.320312 82.175781 L 115.40625 82.175781 C 119.140625 82.175781 122.167969 85.222656 122.167969 88.957031 C 122.167969 92.6875 119.140625 95.71875 115.40625 95.71875 L 104.660156 95.71875 L 138.523438 129.585938 L 162.796875 129.585938 C 164.601562 129.585938 166.332031 130.289062 167.578125 131.566406 L 201.441406 165.417969 C 203.371094 167.363281 203.949219 170.265625 202.921875 172.808594 Z M 146.117188 113.929688 C 148.191406 108.105469 149.253906 101.976562 149.253906 95.734375 C 149.253906 65.855469 124.964844 41.5625 95.082031 41.5625 C 65.21875 41.5625 40.929688 65.855469 40.929688 95.734375 C 40.929688 125.597656 65.21875 149.890625 95.082031 149.890625 C 101.339844 149.890625 107.472656 148.84375 113.296875 146.75 L 108.734375 134.003906 C 104.371094 135.554688 99.789062 136.363281 95.082031 136.363281 C 72.6875 136.363281 54.472656 118.132812 54.472656 95.734375 C 54.472656 73.320312 72.6875 55.105469 95.082031 55.105469 C 117.5 55.105469 135.710938 73.320312 135.710938 95.734375 C 135.710938 100.425781 134.917969 105.023438 133.367188 109.386719 Z M 120.691406 172.863281 L 124.945312 185.722656 C 115.335938 188.914062 105.289062 190.519531 95.082031 190.519531 C 42.824219 190.519531 0.300781 147.996094 0.300781 95.734375 C 0.300781 43.457031 42.824219 0.9375 95.082031 0.9375 C 147.363281 0.9375 189.882812 43.457031 189.882812 95.734375 C 189.882812 105.90625 188.277344 115.953125 185.085938 125.5625 L 172.230469 121.324219 C 174.96875 113.082031 176.339844 104.464844 176.339844 95.734375 C 176.339844 50.921875 139.894531 14.476562 95.082031 14.476562 C 50.289062 14.476562 13.84375 50.921875 13.84375 95.734375 C 13.84375 140.53125 50.289062 176.976562 95.082031 176.976562 C 103.847656 176.976562 112.449219 175.585938 120.691406 172.863281 " fill-opacity="1" fill-rule="nonzero"/></g></svg>