<svg xmlns="http://www.w3.org/2000/svg" xmlns:xlink="http://www.w3.org/1999/xlink" width="162" zoomAndPan="magnify" viewBox="0 0 121.5 35.25" height="47" preserveAspectRatio="xMidYMid meet" version="1.0"><defs><clipPath id="72b8b1379f"><path d="M 95 0.367188 L 111 0.367188 L 111 29.742188 L 95 29.742188 Z M 95 0.367188 " clip-rule="nonzero"/></clipPath><clipPath id="1a988b98f1"><path d="M 57 0.367188 L 73 0.367188 L 73 29.742188 L 57 29.742188 Z M 57 0.367188 " clip-rule="nonzero"/></clipPath><clipPath id="773121eff3"><path d="M 20 0.367188 L 36 0.367188 L 36 29.742188 L 20 29.742188 Z M 20 0.367188 " clip-rule="nonzero"/></clipPath><clipPath id="0a7a9de6e7"><path d="M 104 0.367188 L 119.457031 0.367188 L 119.457031 29.742188 L 104 29.742188 Z M 104 0.367188 " clip-rule="nonzero"/></clipPath><clipPath id="a19a3b4be6"><path d="M 67 0.367188 L 82 0.367188 L 82 29.742188 L 67 29.742188 Z M 67 0.367188 " clip-rule="nonzero"/></clipPath><clipPath id="b512c674eb"><path d="M 29 0.367188 L 45 0.367188 L 45 29.742188 L 29 29.742188 Z M 29 0.367188 " clip-rule="nonzero"/></clipPath><clipPath id="44dfb2042f"><path d="M 76 0.367188 L 92 0.367188 L 92 29.742188 L 76 29.742188 Z M 76 0.367188 " clip-rule="nonzero"/></clipPath><clipPath id="9b34d7522a"><path d="M 39 0.367188 L 54 0.367188 L 54 29.742188 L 39 29.742188 Z M 39 0.367188 " clip-rule="nonzero"/></clipPath><clipPath id="aff2d3d554"><path d="M 1.542969 0.367188 L 17 0.367188 L 17 29.742188 L 1.542969 29.742188 Z M 1.542969 0.367188 " clip-rule="nonzero"/></clipPath><clipPath id="3293c52e3e"><path d="M 85 0.367188 L 101 0.367188 L 101 29.742188 L 85 29.742188 Z M 85 0.367188 " clip-rule="nonzero"/></clipPath><clipPath id="9d5f4bd6ed"><path d="M 48 0.367188 L 64 0.367188 L 64 29.742188 L 48 29.742188 Z M 48 0.367188 " clip-rule="nonzero"/></clipPath><clipPath id="2c675b580a"><path d="M 10 0.367188 L 26 0.367188 L 26 29.742188 L 10 29.742188 Z M 10 0.367188 " clip-rule="nonzero"/></clipPath></defs><g clip-path="url(#72b8b1379f)"><path fill="#20a4f3" d="M 104.910156 0.390625 L 110.078125 0.390625 L 100.472656 15.191406 L 110.058594 29.976562 L 104.910156 29.976562 L 95.304688 15.191406 Z M 104.910156 0.390625 " fill-opacity="1" fill-rule="nonzero"/></g><g clip-path="url(#1a988b98f1)"><path fill="#20a4f3" d="M 67.40625 0.390625 L 72.570312 0.390625 L 62.964844 15.191406 L 72.558594 29.976562 L 67.40625 29.976562 L 57.800781 15.191406 Z M 67.40625 0.390625 " fill-opacity="1" fill-rule="nonzero"/></g><g clip-path="url(#773121eff3)"><path fill="#20a4f3" d="M 29.902344 0.390625 L 35.066406 0.390625 L 25.460938 15.191406 L 35.054688 29.976562 L 29.902344 29.976562 L 20.292969 15.191406 Z M 29.902344 0.390625 " fill-opacity="1" fill-rule="nonzero"/></g><g clip-path="url(#0a7a9de6e7)"><path fill="#20a4f3" d="M 119.457031 0.390625 L 109.851562 15.191406 L 119.457031 29.976562 L 114.292969 29.976562 L 104.6875 15.191406 L 114.292969 0.390625 Z M 119.457031 0.390625 " fill-opacity="1" fill-rule="nonzero"/></g><g clip-path="url(#a19a3b4be6)"><path fill="#20a4f3" d="M 81.949219 0.390625 L 72.34375 15.191406 L 81.949219 29.976562 L 76.785156 29.976562 L 67.179688 15.191406 L 76.78125 0.390625 Z M 81.949219 0.390625 " fill-opacity="1" fill-rule="nonzero"/></g><g clip-path="url(#b512c674eb)"><path fill="#20a4f3" d="M 44.441406 0.390625 L 34.835938 15.191406 L 44.441406 29.976562 L 39.277344 29.976562 L 29.671875 15.191406 L 39.277344 0.390625 Z M 44.441406 0.390625 " fill-opacity="1" fill-rule="nonzero"/></g><g clip-path="url(#44dfb2042f)"><path fill="#20a4f3" d="M 86.160156 0.390625 L 91.324219 0.390625 L 81.71875 15.191406 L 91.308594 29.976562 L 86.15625 29.976562 L 76.550781 15.191406 Z M 86.160156 0.390625 " fill-opacity="1" fill-rule="nonzero"/></g><g clip-path="url(#9b34d7522a)"><path fill="#20a4f3" d="M 48.652344 0.390625 L 53.816406 0.390625 L 44.210938 15.191406 L 53.804688 29.976562 L 48.652344 29.976562 L 39.046875 15.191406 Z M 48.652344 0.390625 " fill-opacity="1" fill-rule="nonzero"/></g><g clip-path="url(#aff2d3d554)"><path fill="#20a4f3" d="M 11.148438 0.390625 L 16.3125 0.390625 L 6.707031 15.191406 L 16.300781 29.976562 L 11.148438 29.976562 L 1.542969 15.191406 Z M 11.148438 0.390625 " fill-opacity="1" fill-rule="nonzero"/></g><g clip-path="url(#3293c52e3e)"><path fill="#20a4f3" d="M 100.699219 0.390625 L 91.09375 15.191406 L 100.699219 29.976562 L 95.535156 29.976562 L 85.929688 15.191406 L 95.535156 0.390625 Z M 100.699219 0.390625 " fill-opacity="1" fill-rule="nonzero"/></g><g clip-path="url(#9d5f4bd6ed)"><path fill="#20a4f3" d="M 63.195312 0.390625 L 53.589844 15.191406 L 63.195312 29.976562 L 58.03125 29.976562 L 48.425781 15.191406 L 58.03125 0.390625 Z M 63.195312 0.390625 " fill-opacity="1" fill-rule="nonzero"/></g><g clip-path="url(#2c675b580a)"><path fill="#20a4f3" d="M 25.691406 0.390625 L 16.085938 15.191406 L 25.691406 29.976562 L 20.527344 29.976562 L 10.921875 15.191406 L 20.523438 0.390625 Z M 25.691406 0.390625 " fill-opacity="1" fill-rule="nonzero"/></g></svg>