<svg xmlns="http://www.w3.org/2000/svg" xmlns:xlink="http://www.w3.org/1999/xlink" width="246" zoomAndPan="magnify" viewBox="0 0 184.5 203.249992" height="271" preserveAspectRatio="xMidYMid meet" version="1.0"><defs><clipPath id="3f308a550c"><path d="M 0.113281 0.730469 L 183.910156 0.730469 L 183.910156 202.484375 L 0.113281 202.484375 Z M 0.113281 0.730469 " clip-rule="nonzero"/></clipPath></defs><g clip-path="url(#3f308a550c)"><path fill="#edf2f4" d="M 117.941406 160.921875 L 17.367188 160.921875 L 17.367188 21.765625 L 131.726562 21.765625 C 137.464844 21.765625 142.132812 17.097656 142.132812 11.359375 C 142.132812 5.625 137.460938 0.957031 131.726562 0.957031 L 10.515625 0.957031 C 4.78125 0.957031 0.113281 5.625 0.113281 11.359375 C 0.113281 17.070312 4.734375 21.714844 10.429688 21.761719 L 10.429688 164.390625 C 10.429688 166.304688 11.984375 167.859375 13.898438 167.859375 L 117.941406 167.859375 C 119.855469 167.859375 121.410156 166.304688 121.410156 164.390625 C 121.410156 162.476562 119.855469 160.921875 117.941406 160.921875 Z M 7.046875 11.359375 C 7.046875 9.449219 8.605469 7.890625 10.515625 7.890625 L 131.726562 7.890625 C 133.640625 7.890625 135.195312 9.449219 135.195312 11.359375 C 135.195312 13.273438 133.640625 14.828125 131.726562 14.828125 L 10.515625 14.828125 C 8.605469 14.828125 7.046875 13.273438 7.046875 11.359375 Z M 128.34375 46.042969 C 128.34375 59.425781 139.238281 70.316406 152.621094 70.316406 C 166.007812 70.316406 176.898438 59.425781 176.898438 46.042969 C 176.898438 32.65625 166.007812 21.765625 152.621094 21.765625 C 139.238281 21.765625 128.34375 32.65625 128.34375 46.042969 Z M 152.621094 28.703125 C 162.183594 28.703125 169.964844 36.480469 169.964844 46.042969 C 169.964844 55.605469 162.183594 63.386719 152.621094 63.386719 C 143.0625 63.386719 135.28125 55.605469 135.28125 46.042969 C 135.28125 36.480469 143.0625 28.703125 152.621094 28.703125 Z M 166.496094 77.253906 L 83.257812 77.253906 C 77.523438 77.253906 72.855469 81.921875 72.855469 87.660156 C 72.855469 93.394531 77.523438 98.0625 83.257812 98.0625 L 128.34375 98.0625 L 128.34375 198.636719 C 128.34375 200.554688 129.898438 202.105469 131.8125 202.105469 L 173.429688 202.105469 C 175.34375 202.105469 176.898438 200.554688 176.898438 198.636719 L 176.898438 152.960938 C 180.933594 151.527344 183.832031 147.671875 183.832031 143.148438 L 183.832031 94.597656 C 183.832031 85.035156 176.054688 77.253906 166.496094 77.253906 Z M 176.898438 143.148438 C 176.898438 145.0625 175.34375 146.617188 173.429688 146.617188 C 171.515625 146.617188 169.960938 145.0625 169.960938 143.148438 L 169.960938 108.46875 C 169.960938 106.550781 168.40625 105 166.492188 105 C 164.578125 105 163.023438 106.550781 163.023438 108.46875 L 163.023438 143.148438 C 163.023438 147.667969 165.921875 151.527344 169.957031 152.957031 L 169.957031 195.167969 L 156.085938 195.167969 L 156.085938 156.589844 C 156.085938 154.671875 154.53125 153.121094 152.617188 153.121094 C 150.703125 153.121094 149.148438 154.671875 149.148438 156.589844 L 149.148438 195.171875 L 135.277344 195.171875 L 135.277344 94.597656 C 135.277344 92.679688 133.722656 91.128906 131.808594 91.128906 L 83.257812 91.128906 C 81.347656 91.128906 79.789062 89.574219 79.789062 87.660156 C 79.789062 85.746094 81.347656 84.191406 83.257812 84.191406 L 166.492188 84.191406 C 172.230469 84.191406 176.894531 88.855469 176.894531 94.59375 L 176.894531 143.148438 Z M 111.003906 42.574219 L 34.707031 42.574219 C 32.789062 42.574219 31.238281 41.023438 31.238281 39.105469 C 31.238281 37.191406 32.789062 35.636719 34.707031 35.636719 L 111.003906 35.636719 C 112.917969 35.636719 114.472656 37.191406 114.472656 39.105469 C 114.472656 41.023438 112.917969 42.574219 111.003906 42.574219 Z M 104.070312 63.382812 L 34.707031 63.382812 C 32.789062 63.382812 31.238281 61.828125 31.238281 59.914062 C 31.238281 58 32.789062 56.445312 34.707031 56.445312 L 104.066406 56.445312 C 105.980469 56.445312 107.535156 58 107.535156 59.914062 C 107.535156 61.828125 105.984375 63.382812 104.070312 63.382812 Z M 65.921875 80.722656 C 65.921875 82.640625 64.367188 84.191406 62.453125 84.191406 L 34.707031 84.191406 C 32.789062 84.191406 31.238281 82.640625 31.238281 80.722656 C 31.238281 78.808594 32.789062 77.253906 34.707031 77.253906 L 62.453125 77.253906 C 64.367188 77.253906 65.921875 78.808594 65.921875 80.722656 Z M 31.238281 101.53125 C 31.238281 99.617188 32.789062 98.0625 34.707031 98.0625 L 62.453125 98.0625 C 64.367188 98.0625 65.921875 99.617188 65.921875 101.53125 C 65.921875 103.445312 64.367188 105 62.453125 105 L 34.707031 105 C 32.789062 105 31.238281 103.445312 31.238281 101.53125 Z M 31.238281 122.339844 C 31.238281 120.425781 32.789062 118.871094 34.707031 118.871094 L 97.132812 118.871094 C 99.046875 118.871094 100.601562 120.425781 100.601562 122.339844 C 100.601562 124.253906 99.046875 125.808594 97.132812 125.808594 L 34.707031 125.808594 C 32.789062 125.808594 31.238281 124.253906 31.238281 122.339844 Z M 31.238281 122.339844 " fill-opacity="1" fill-rule="nonzero"/></g></svg>